<mxfile host="drawio-plugin" modified="2023-09-24T11:52:54.322Z" agent="5.0 (Windows NT 6.2; Win64; x64) AppleWebKit/537.36 (KHTML, like Gecko) Chrome/104.0.5112.102 Safari/537.36" etag="sYMEbAE5GS8w5Rpc0RpT" version="20.5.3" type="embed"><diagram name="Strona-1" id="PI9fa6KRbpcqjx04Dy3F"><mxGraphModel dx="10270" dy="5875" grid="1" gridSize="10" guides="1" tooltips="1" connect="1" arrows="1" fold="1" page="0" pageScale="1" pageWidth="827" pageHeight="1169" math="0" shadow="0"><root><object label="" id="0"><mxCell/></object><mxCell id="1" parent="0"/><mxCell id="wgz8BLLzfPJGVLbiUXuB-59" value="Later" style="swimlane;whiteSpace=wrap;html=1;strokeColor=#005700;fillColor=#008a00;separatorColor=none;noLabel=0;portConstraintRotation=0;snapToPoint=1;backgroundOutline=0;labelBackgroundColor=#003366;fontSize=52;fontColor=#ffffff;" parent="1" vertex="1"><mxGeometry x="-900" y="390" width="820" height="760" as="geometry"/></mxCell><mxCell id="wgz8BLLzfPJGVLbiUXuB-6" style="edgeStyle=orthogonalEdgeStyle;rounded=0;orthogonalLoop=1;jettySize=auto;html=1;exitX=1;exitY=0.5;exitDx=0;exitDy=0;labelBackgroundColor=none;fontColor=default;strokeColor=#005700;fillColor=#008a00;fontSize=52;" parent="1" source="wgz8BLLzfPJGVLbiUXuB-1" target="wgz8BLLzfPJGVLbiUXuB-2" edge="1"><mxGeometry relative="1" as="geometry"/></mxCell><mxCell id="wgz8BLLzfPJGVLbiUXuB-7" style="edgeStyle=orthogonalEdgeStyle;rounded=0;orthogonalLoop=1;jettySize=auto;html=1;exitX=0;exitY=0.5;exitDx=0;exitDy=0;entryX=0.5;entryY=0;entryDx=0;entryDy=0;labelBackgroundColor=none;fontColor=default;strokeColor=#005700;fillColor=#008a00;fontSize=52;" parent="1" source="wgz8BLLzfPJGVLbiUXuB-1" target="wgz8BLLzfPJGVLbiUXuB-3" edge="1"><mxGeometry relative="1" as="geometry"><Array as="points"><mxPoint x="-570" y="75"/><mxPoint x="-570" y="550"/></Array></mxGeometry></mxCell><mxCell id="wgz8BLLzfPJGVLbiUXuB-1" value="SIAAI" style="rounded=1;whiteSpace=wrap;html=1;labelBackgroundColor=none;fillColor=#008a00;strokeColor=#005700;fontSize=52;fontColor=#ffffff;" parent="1" vertex="1"><mxGeometry x="570" y="-90" width="460" height="330" as="geometry"/></mxCell><mxCell id="wgz8BLLzfPJGVLbiUXuB-8" style="edgeStyle=orthogonalEdgeStyle;rounded=0;orthogonalLoop=1;jettySize=auto;html=1;exitX=0.5;exitY=1;exitDx=0;exitDy=0;entryX=0.5;entryY=0;entryDx=0;entryDy=0;labelBackgroundColor=none;fontColor=default;strokeColor=#005700;fillColor=#008a00;fontSize=52;" parent="1" source="wgz8BLLzfPJGVLbiUXuB-2" target="wgz8BLLzfPJGVLbiUXuB-5" edge="1"><mxGeometry relative="1" as="geometry"/></mxCell><mxCell id="wgz8BLLzfPJGVLbiUXuB-9" style="edgeStyle=orthogonalEdgeStyle;rounded=0;orthogonalLoop=1;jettySize=auto;html=1;exitX=0.5;exitY=1;exitDx=0;exitDy=0;entryX=0.5;entryY=0;entryDx=0;entryDy=0;labelBackgroundColor=none;fontColor=default;strokeColor=#005700;fillColor=#008a00;fontSize=52;" parent="1" source="wgz8BLLzfPJGVLbiUXuB-2" target="wgz8BLLzfPJGVLbiUXuB-4" edge="1"><mxGeometry relative="1" as="geometry"/></mxCell><mxCell id="wgz8BLLzfPJGVLbiUXuB-11" style="edgeStyle=orthogonalEdgeStyle;rounded=0;orthogonalLoop=1;jettySize=auto;html=1;exitX=0.5;exitY=1;exitDx=0;exitDy=0;labelBackgroundColor=none;fontColor=default;strokeColor=#005700;fillColor=#008a00;fontSize=52;" parent="1" source="wgz8BLLzfPJGVLbiUXuB-2" target="wgz8BLLzfPJGVLbiUXuB-10" edge="1"><mxGeometry relative="1" as="geometry"/></mxCell><mxCell id="wgz8BLLzfPJGVLbiUXuB-2" value="home" style="rounded=1;whiteSpace=wrap;html=1;labelBackgroundColor=none;fillColor=#008a00;strokeColor=#005700;fontSize=52;fontColor=#ffffff;" parent="1" vertex="1"><mxGeometry x="1639.94" y="310" width="270.06" height="180" as="geometry"/></mxCell><mxCell id="wgz8BLLzfPJGVLbiUXuB-16" style="edgeStyle=orthogonalEdgeStyle;rounded=0;orthogonalLoop=1;jettySize=auto;html=1;exitX=0.5;exitY=1;exitDx=0;exitDy=0;entryX=0.5;entryY=0;entryDx=0;entryDy=0;labelBackgroundColor=none;fontColor=default;strokeColor=#005700;fillColor=#008a00;fontSize=52;" parent="1" source="wgz8BLLzfPJGVLbiUXuB-3" target="wgz8BLLzfPJGVLbiUXuB-13" edge="1"><mxGeometry relative="1" as="geometry"/></mxCell><mxCell id="wgz8BLLzfPJGVLbiUXuB-17" style="edgeStyle=orthogonalEdgeStyle;rounded=0;orthogonalLoop=1;jettySize=auto;html=1;exitX=0.5;exitY=1;exitDx=0;exitDy=0;entryX=0.5;entryY=0;entryDx=0;entryDy=0;labelBackgroundColor=none;fontColor=default;strokeColor=#005700;fillColor=#008a00;fontSize=52;" parent="1" source="wgz8BLLzfPJGVLbiUXuB-3" target="wgz8BLLzfPJGVLbiUXuB-14" edge="1"><mxGeometry relative="1" as="geometry"/></mxCell><mxCell id="wgz8BLLzfPJGVLbiUXuB-3" value="portable" style="rounded=1;whiteSpace=wrap;html=1;labelBackgroundColor=none;fillColor=#008a00;strokeColor=#005700;fontSize=52;fontColor=#ffffff;" parent="1" vertex="1"><mxGeometry x="-640" y="550" width="240" height="60" as="geometry"/></mxCell><mxCell id="wgz8BLLzfPJGVLbiUXuB-19" style="edgeStyle=orthogonalEdgeStyle;rounded=0;orthogonalLoop=1;jettySize=auto;html=1;exitX=0.5;exitY=1;exitDx=0;exitDy=0;labelBackgroundColor=none;fontColor=default;strokeColor=#005700;fillColor=#008a00;fontSize=52;" parent="1" source="wgz8BLLzfPJGVLbiUXuB-4" target="wgz8BLLzfPJGVLbiUXuB-18" edge="1"><mxGeometry relative="1" as="geometry"/></mxCell><mxCell id="wgz8BLLzfPJGVLbiUXuB-4" value="talkative helper" style="rounded=1;whiteSpace=wrap;html=1;labelBackgroundColor=none;fillColor=#008a00;strokeColor=#005700;fontSize=52;fontColor=#ffffff;" parent="1" vertex="1"><mxGeometry x="1639.94" y="620" width="370.06" height="220" as="geometry"/></mxCell><mxCell id="wgz8BLLzfPJGVLbiUXuB-38" style="edgeStyle=orthogonalEdgeStyle;rounded=0;orthogonalLoop=1;jettySize=auto;html=1;exitX=0.5;exitY=1;exitDx=0;exitDy=0;entryX=0.5;entryY=0;entryDx=0;entryDy=0;labelBackgroundColor=none;fontColor=default;strokeColor=#005700;fillColor=#008a00;fontSize=52;" parent="1" source="wgz8BLLzfPJGVLbiUXuB-5" target="wgz8BLLzfPJGVLbiUXuB-37" edge="1"><mxGeometry relative="1" as="geometry"/></mxCell><mxCell id="wgz8BLLzfPJGVLbiUXuB-41" style="edgeStyle=orthogonalEdgeStyle;rounded=0;orthogonalLoop=1;jettySize=auto;html=1;exitX=0.5;exitY=1;exitDx=0;exitDy=0;entryX=0.5;entryY=0;entryDx=0;entryDy=0;labelBackgroundColor=none;fontColor=default;strokeColor=#005700;fillColor=#008a00;fontSize=52;" parent="1" source="wgz8BLLzfPJGVLbiUXuB-5" target="wgz8BLLzfPJGVLbiUXuB-39" edge="1"><mxGeometry relative="1" as="geometry"/></mxCell><mxCell id="wgz8BLLzfPJGVLbiUXuB-42" style="edgeStyle=orthogonalEdgeStyle;rounded=0;orthogonalLoop=1;jettySize=auto;html=1;exitX=0.5;exitY=1;exitDx=0;exitDy=0;labelBackgroundColor=none;fontColor=default;strokeColor=#005700;fillColor=#008a00;fontSize=52;" parent="1" source="wgz8BLLzfPJGVLbiUXuB-5" target="wgz8BLLzfPJGVLbiUXuB-40" edge="1"><mxGeometry relative="1" as="geometry"/></mxCell><mxCell id="wgz8BLLzfPJGVLbiUXuB-51" style="edgeStyle=orthogonalEdgeStyle;rounded=0;orthogonalLoop=1;jettySize=auto;html=1;exitX=0.5;exitY=1;exitDx=0;exitDy=0;entryX=0.445;entryY=-0.001;entryDx=0;entryDy=0;entryPerimeter=0;labelBackgroundColor=none;fontColor=default;strokeColor=#005700;fillColor=#008a00;fontSize=52;" parent="1" source="wgz8BLLzfPJGVLbiUXuB-5" target="wgz8BLLzfPJGVLbiUXuB-50" edge="1"><mxGeometry relative="1" as="geometry"/></mxCell><mxCell id="wgz8BLLzfPJGVLbiUXuB-53" style="edgeStyle=orthogonalEdgeStyle;rounded=0;orthogonalLoop=1;jettySize=auto;html=1;exitX=0.5;exitY=1;exitDx=0;exitDy=0;labelBackgroundColor=none;fontColor=default;strokeColor=#005700;fillColor=#008a00;fontSize=52;" parent="1" source="wgz8BLLzfPJGVLbiUXuB-5" target="wgz8BLLzfPJGVLbiUXuB-52" edge="1"><mxGeometry relative="1" as="geometry"/></mxCell><mxCell id="wgz8BLLzfPJGVLbiUXuB-55" style="edgeStyle=orthogonalEdgeStyle;rounded=0;orthogonalLoop=1;jettySize=auto;html=1;exitX=0.5;exitY=1;exitDx=0;exitDy=0;entryX=0.5;entryY=0;entryDx=0;entryDy=0;labelBackgroundColor=none;fontColor=default;strokeColor=#005700;fillColor=#008a00;fontSize=52;" parent="1" source="wgz8BLLzfPJGVLbiUXuB-5" target="wgz8BLLzfPJGVLbiUXuB-54" edge="1"><mxGeometry relative="1" as="geometry"><mxPoint x="129.9988235294117" y="890" as="targetPoint"/></mxGeometry></mxCell><mxCell id="wgz8BLLzfPJGVLbiUXuB-58" style="edgeStyle=orthogonalEdgeStyle;rounded=0;orthogonalLoop=1;jettySize=auto;html=1;exitX=0.5;exitY=1;exitDx=0;exitDy=0;entryX=0.5;entryY=0;entryDx=0;entryDy=0;labelBackgroundColor=none;fontColor=default;strokeColor=#005700;fillColor=#008a00;fontSize=52;" parent="1" source="wgz8BLLzfPJGVLbiUXuB-5" target="wgz8BLLzfPJGVLbiUXuB-15" edge="1"><mxGeometry relative="1" as="geometry"/></mxCell><mxCell id="wgz8BLLzfPJGVLbiUXuB-5" value="control home devices&amp;nbsp;" style="rounded=1;whiteSpace=wrap;html=1;labelBackgroundColor=none;fillColor=#008a00;strokeColor=#005700;fontSize=52;fontColor=#ffffff;" parent="1" vertex="1"><mxGeometry x="509.94" y="550" width="380.06" height="170" as="geometry"/></mxCell><mxCell id="wgz8BLLzfPJGVLbiUXuB-21" style="edgeStyle=orthogonalEdgeStyle;rounded=0;orthogonalLoop=1;jettySize=auto;html=1;exitX=0.5;exitY=1;exitDx=0;exitDy=0;labelBackgroundColor=none;fontColor=default;strokeColor=#005700;fillColor=#008a00;fontSize=52;" parent="1" source="wgz8BLLzfPJGVLbiUXuB-10" target="wgz8BLLzfPJGVLbiUXuB-20" edge="1"><mxGeometry relative="1" as="geometry"/></mxCell><mxCell id="wgz8BLLzfPJGVLbiUXuB-10" value="writable helper" style="rounded=1;whiteSpace=wrap;html=1;labelBackgroundColor=none;fillColor=#008a00;strokeColor=#005700;fontSize=52;fontColor=#ffffff;" parent="1" vertex="1"><mxGeometry x="2409.94" y="580" width="430.06" height="220" as="geometry"/></mxCell><mxCell id="wgz8BLLzfPJGVLbiUXuB-13" value="phone apps" style="rounded=1;whiteSpace=wrap;html=1;labelBackgroundColor=none;fillColor=#008a00;strokeColor=#005700;fontSize=52;fontColor=#ffffff;" parent="1" vertex="1"><mxGeometry x="-790" y="680" width="210" height="140" as="geometry"/></mxCell><mxCell id="wgz8BLLzfPJGVLbiUXuB-14" value="laptop apps" style="rounded=1;whiteSpace=wrap;html=1;labelBackgroundColor=none;fillColor=#008a00;strokeColor=#005700;fontSize=52;fontColor=#ffffff;" parent="1" vertex="1"><mxGeometry x="-480" y="680" width="220" height="130" as="geometry"/></mxCell><mxCell id="wgz8BLLzfPJGVLbiUXuB-15" value="TV" style="rounded=1;whiteSpace=wrap;html=1;labelBackgroundColor=none;fillColor=#008a00;strokeColor=#005700;fontSize=52;fontColor=#ffffff;" parent="1" vertex="1"><mxGeometry x="1029.94" y="890" width="160.06" height="110" as="geometry"/></mxCell><mxCell id="wgz8BLLzfPJGVLbiUXuB-23" style="edgeStyle=orthogonalEdgeStyle;rounded=0;orthogonalLoop=1;jettySize=auto;html=1;exitX=0.5;exitY=1;exitDx=0;exitDy=0;entryX=0.5;entryY=0;entryDx=0;entryDy=0;labelBackgroundColor=none;fontColor=default;strokeColor=#005700;fillColor=#008a00;fontSize=52;" parent="1" source="wgz8BLLzfPJGVLbiUXuB-18" target="wgz8BLLzfPJGVLbiUXuB-22" edge="1"><mxGeometry relative="1" as="geometry"/></mxCell><mxCell id="wgz8BLLzfPJGVLbiUXuB-32" style="edgeStyle=orthogonalEdgeStyle;rounded=0;orthogonalLoop=1;jettySize=auto;html=1;exitX=0.5;exitY=1;exitDx=0;exitDy=0;entryX=0.5;entryY=0;entryDx=0;entryDy=0;labelBackgroundColor=none;fontColor=default;strokeColor=#005700;fillColor=#008a00;fontSize=52;" parent="1" source="wgz8BLLzfPJGVLbiUXuB-18" target="wgz8BLLzfPJGVLbiUXuB-31" edge="1"><mxGeometry relative="1" as="geometry"/></mxCell><mxCell id="wgz8BLLzfPJGVLbiUXuB-35" style="edgeStyle=orthogonalEdgeStyle;rounded=0;orthogonalLoop=1;jettySize=auto;html=1;exitX=0.5;exitY=1;exitDx=0;exitDy=0;entryX=0.5;entryY=0;entryDx=0;entryDy=0;labelBackgroundColor=none;fontColor=default;strokeColor=#005700;fillColor=#008a00;fontSize=52;" parent="1" source="wgz8BLLzfPJGVLbiUXuB-18" target="wgz8BLLzfPJGVLbiUXuB-34" edge="1"><mxGeometry relative="1" as="geometry"><mxPoint x="1500" y="1080" as="targetPoint"/></mxGeometry></mxCell><mxCell id="wgz8BLLzfPJGVLbiUXuB-18" value="AI" style="rounded=1;whiteSpace=wrap;html=1;labelBackgroundColor=none;fillColor=#008a00;strokeColor=#005700;fontSize=52;fontColor=#ffffff;" parent="1" vertex="1"><mxGeometry x="1639.94" y="940" width="120" height="60" as="geometry"/></mxCell><mxCell id="wgz8BLLzfPJGVLbiUXuB-27" style="edgeStyle=orthogonalEdgeStyle;rounded=0;orthogonalLoop=1;jettySize=auto;html=1;exitX=0.5;exitY=1;exitDx=0;exitDy=0;entryX=0.5;entryY=0;entryDx=0;entryDy=0;labelBackgroundColor=none;fontColor=default;strokeColor=#005700;fillColor=#008a00;fontSize=52;" parent="1" source="wgz8BLLzfPJGVLbiUXuB-20" target="wgz8BLLzfPJGVLbiUXuB-24" edge="1"><mxGeometry relative="1" as="geometry"/></mxCell><mxCell id="wgz8BLLzfPJGVLbiUXuB-28" style="edgeStyle=orthogonalEdgeStyle;rounded=0;orthogonalLoop=1;jettySize=auto;html=1;exitX=0.5;exitY=1;exitDx=0;exitDy=0;entryX=0.5;entryY=0;entryDx=0;entryDy=0;labelBackgroundColor=none;fontColor=default;strokeColor=#005700;fillColor=#008a00;fontSize=52;" parent="1" source="wgz8BLLzfPJGVLbiUXuB-20" target="wgz8BLLzfPJGVLbiUXuB-25" edge="1"><mxGeometry relative="1" as="geometry"/></mxCell><mxCell id="wgz8BLLzfPJGVLbiUXuB-29" style="edgeStyle=orthogonalEdgeStyle;rounded=0;orthogonalLoop=1;jettySize=auto;html=1;exitX=0.5;exitY=1;exitDx=0;exitDy=0;entryX=0.5;entryY=0;entryDx=0;entryDy=0;labelBackgroundColor=none;fontColor=default;strokeColor=#005700;fillColor=#008a00;fontSize=52;" parent="1" source="wgz8BLLzfPJGVLbiUXuB-20" target="wgz8BLLzfPJGVLbiUXuB-26" edge="1"><mxGeometry relative="1" as="geometry"/></mxCell><mxCell id="wgz8BLLzfPJGVLbiUXuB-20" value="AI" style="rounded=1;whiteSpace=wrap;html=1;labelBackgroundColor=none;fillColor=#008a00;strokeColor=#005700;fontSize=52;fontColor=#ffffff;" parent="1" vertex="1"><mxGeometry x="2409.94" y="880" width="120" height="60" as="geometry"/></mxCell><mxCell id="wgz8BLLzfPJGVLbiUXuB-22" value="TTS" style="rounded=1;whiteSpace=wrap;html=1;labelBackgroundColor=none;fillColor=#008a00;strokeColor=#005700;fontSize=52;fontColor=#ffffff;" parent="1" vertex="1"><mxGeometry x="1639.94" y="1090" width="140" height="110" as="geometry"/></mxCell><mxCell id="wgz8BLLzfPJGVLbiUXuB-24" value="FIles" style="rounded=1;whiteSpace=wrap;html=1;labelBackgroundColor=none;fillColor=#008a00;strokeColor=#005700;fontSize=52;fontColor=#ffffff;" parent="1" vertex="1"><mxGeometry x="2209.94" y="1030" width="120" height="60" as="geometry"/></mxCell><mxCell id="wgz8BLLzfPJGVLbiUXuB-25" value="Text" style="rounded=1;whiteSpace=wrap;html=1;labelBackgroundColor=none;fillColor=#008a00;strokeColor=#005700;fontSize=52;fontColor=#ffffff;" parent="1" vertex="1"><mxGeometry x="2409.94" y="1030" width="120" height="60" as="geometry"/></mxCell><mxCell id="wgz8BLLzfPJGVLbiUXuB-26" value="Photos" style="rounded=1;whiteSpace=wrap;html=1;labelBackgroundColor=none;fillColor=#008a00;strokeColor=#005700;fontSize=52;fontColor=#ffffff;" parent="1" vertex="1"><mxGeometry x="2609.94" y="1030" width="120" height="60" as="geometry"/></mxCell><mxCell id="wgz8BLLzfPJGVLbiUXuB-33" style="edgeStyle=orthogonalEdgeStyle;rounded=0;orthogonalLoop=1;jettySize=auto;html=1;exitX=0.5;exitY=1;exitDx=0;exitDy=0;entryX=0;entryY=0.5;entryDx=0;entryDy=0;labelBackgroundColor=none;fontColor=default;strokeColor=#005700;fillColor=#008a00;fontSize=52;" parent="1" source="wgz8BLLzfPJGVLbiUXuB-31" target="wgz8BLLzfPJGVLbiUXuB-10" edge="1"><mxGeometry relative="1" as="geometry"/></mxCell><mxCell id="wgz8BLLzfPJGVLbiUXuB-31" value="Writable actions" style="rounded=1;whiteSpace=wrap;html=1;labelBackgroundColor=none;fillColor=#008a00;strokeColor=#005700;fontSize=52;fontColor=#ffffff;" parent="1" vertex="1"><mxGeometry x="1829.94" y="1080" width="210.06" height="110" as="geometry"/></mxCell><mxCell id="wgz8BLLzfPJGVLbiUXuB-36" style="edgeStyle=orthogonalEdgeStyle;rounded=0;orthogonalLoop=1;jettySize=auto;html=1;exitX=0.5;exitY=1;exitDx=0;exitDy=0;entryX=1;entryY=0.5;entryDx=0;entryDy=0;labelBackgroundColor=none;fontColor=default;strokeColor=#005700;fillColor=#008a00;fontSize=52;" parent="1" source="wgz8BLLzfPJGVLbiUXuB-34" target="wgz8BLLzfPJGVLbiUXuB-5" edge="1"><mxGeometry relative="1" as="geometry"><mxPoint x="1230" y="750" as="targetPoint"/><Array as="points"><mxPoint x="1540" y="1160"/><mxPoint x="1260" y="1160"/><mxPoint x="1260" y="690"/></Array></mxGeometry></mxCell><mxCell id="wgz8BLLzfPJGVLbiUXuB-34" value="Control actions" style="rounded=1;whiteSpace=wrap;html=1;labelBackgroundColor=none;fillColor=#008a00;strokeColor=#005700;fontSize=52;fontColor=#ffffff;" parent="1" vertex="1"><mxGeometry x="1390" y="1080" width="220" height="120" as="geometry"/></mxCell><mxCell id="wgz8BLLzfPJGVLbiUXuB-37" value="lights" style="rounded=1;whiteSpace=wrap;html=1;labelBackgroundColor=none;fillColor=#008a00;strokeColor=#005700;fontSize=52;fontColor=#ffffff;" parent="1" vertex="1"><mxGeometry x="690" y="890" width="150.06" height="100" as="geometry"/></mxCell><mxCell id="wgz8BLLzfPJGVLbiUXuB-39" value="doors" style="rounded=1;whiteSpace=wrap;html=1;labelBackgroundColor=none;fillColor=#008a00;strokeColor=#005700;fontSize=52;fontColor=#ffffff;" parent="1" vertex="1"><mxGeometry x="520" y="890" width="160.06" height="100" as="geometry"/></mxCell><mxCell id="wgz8BLLzfPJGVLbiUXuB-40" value="printers" style="rounded=1;whiteSpace=wrap;html=1;labelBackgroundColor=none;fillColor=#008a00;strokeColor=#005700;fontSize=52;fontColor=#ffffff;" parent="1" vertex="1"><mxGeometry x="199.82" y="890" width="170.06" height="90" as="geometry"/></mxCell><mxCell id="wgz8BLLzfPJGVLbiUXuB-50" value="PC" style="rounded=1;whiteSpace=wrap;html=1;labelBackgroundColor=none;fillColor=#008a00;strokeColor=#005700;fontSize=52;fontColor=#ffffff;" parent="1" vertex="1"><mxGeometry x="369.88" y="890" width="140.06" height="90" as="geometry"/></mxCell><mxCell id="wgz8BLLzfPJGVLbiUXuB-52" value="Kitchen devices" style="rounded=1;whiteSpace=wrap;html=1;labelBackgroundColor=none;fillColor=#008a00;strokeColor=#005700;fontSize=52;fontColor=#ffffff;" parent="1" vertex="1"><mxGeometry x="869.94" y="890" width="140.06" height="110" as="geometry"/></mxCell><mxCell id="wgz8BLLzfPJGVLbiUXuB-56" style="edgeStyle=orthogonalEdgeStyle;rounded=0;orthogonalLoop=1;jettySize=auto;html=1;exitX=0;exitY=0.5;exitDx=0;exitDy=0;entryX=1;entryY=0.5;entryDx=0;entryDy=0;labelBackgroundColor=none;fontColor=default;strokeColor=#005700;fillColor=#008a00;fontSize=52;" parent="1" source="wgz8BLLzfPJGVLbiUXuB-54" target="wgz8BLLzfPJGVLbiUXuB-14" edge="1"><mxGeometry relative="1" as="geometry"/></mxCell><mxCell id="wgz8BLLzfPJGVLbiUXuB-57" style="edgeStyle=orthogonalEdgeStyle;rounded=0;orthogonalLoop=1;jettySize=auto;html=1;exitX=0;exitY=0.5;exitDx=0;exitDy=0;entryX=1;entryY=0.5;entryDx=0;entryDy=0;labelBackgroundColor=none;fontColor=default;strokeColor=#005700;fillColor=#008a00;fontSize=52;" parent="1" source="wgz8BLLzfPJGVLbiUXuB-54" target="wgz8BLLzfPJGVLbiUXuB-13" edge="1"><mxGeometry relative="1" as="geometry"><Array as="points"><mxPoint x="-590" y="920"/><mxPoint x="-590" y="710"/></Array></mxGeometry></mxCell><mxCell id="wgz8BLLzfPJGVLbiUXuB-54" value="Other Network Devices" style="rounded=1;whiteSpace=wrap;html=1;labelBackgroundColor=none;fillColor=#008a00;strokeColor=#005700;fontSize=52;fontColor=#ffffff;" parent="1" vertex="1"><mxGeometry x="-160.06" y="890" width="340" height="90" as="geometry"/></mxCell><mxCell id="wgz8BLLzfPJGVLbiUXuB-68" style="edgeStyle=orthogonalEdgeStyle;rounded=0;orthogonalLoop=1;jettySize=auto;html=1;exitX=0.5;exitY=1;exitDx=0;exitDy=0;shadow=0;fillColor=#008a00;strokeColor=#005700;fontSize=52;" parent="1" source="wgz8BLLzfPJGVLbiUXuB-60" target="wgz8BLLzfPJGVLbiUXuB-62" edge="1"><mxGeometry relative="1" as="geometry"/></mxCell><mxCell id="wgz8BLLzfPJGVLbiUXuB-69" style="edgeStyle=orthogonalEdgeStyle;rounded=0;orthogonalLoop=1;jettySize=auto;html=1;exitX=0.5;exitY=1;exitDx=0;exitDy=0;entryX=0.404;entryY=0.005;entryDx=0;entryDy=0;entryPerimeter=0;shadow=0;fillColor=#008a00;strokeColor=#005700;fontSize=52;" parent="1" source="wgz8BLLzfPJGVLbiUXuB-60" target="wgz8BLLzfPJGVLbiUXuB-64" edge="1"><mxGeometry relative="1" as="geometry"/></mxCell><mxCell id="wgz8BLLzfPJGVLbiUXuB-70" style="edgeStyle=orthogonalEdgeStyle;rounded=0;orthogonalLoop=1;jettySize=auto;html=1;exitX=0.5;exitY=1;exitDx=0;exitDy=0;entryX=0.5;entryY=0;entryDx=0;entryDy=0;shadow=0;fillColor=#008a00;strokeColor=#005700;fontSize=52;" parent="1" source="wgz8BLLzfPJGVLbiUXuB-60" target="wgz8BLLzfPJGVLbiUXuB-65" edge="1"><mxGeometry relative="1" as="geometry"/></mxCell><mxCell id="wgz8BLLzfPJGVLbiUXuB-71" style="edgeStyle=orthogonalEdgeStyle;rounded=0;orthogonalLoop=1;jettySize=auto;html=1;exitX=0.5;exitY=1;exitDx=0;exitDy=0;entryX=0.5;entryY=0;entryDx=0;entryDy=0;shadow=0;fillColor=#008a00;strokeColor=#005700;fontSize=52;" parent="1" source="wgz8BLLzfPJGVLbiUXuB-60" target="wgz8BLLzfPJGVLbiUXuB-66" edge="1"><mxGeometry relative="1" as="geometry"/></mxCell><mxCell id="wgz8BLLzfPJGVLbiUXuB-73" style="edgeStyle=orthogonalEdgeStyle;rounded=0;orthogonalLoop=1;jettySize=auto;html=1;exitX=0.5;exitY=1;exitDx=0;exitDy=0;entryX=0.5;entryY=0;entryDx=0;entryDy=0;shadow=0;fillColor=#008a00;strokeColor=#005700;fontSize=52;" parent="1" source="wgz8BLLzfPJGVLbiUXuB-60" target="wgz8BLLzfPJGVLbiUXuB-67" edge="1"><mxGeometry relative="1" as="geometry"/></mxCell><mxCell id="wgz8BLLzfPJGVLbiUXuB-75" style="edgeStyle=orthogonalEdgeStyle;rounded=0;orthogonalLoop=1;jettySize=auto;html=1;exitX=0.5;exitY=1;exitDx=0;exitDy=0;entryX=0.5;entryY=0;entryDx=0;entryDy=0;shadow=0;fillColor=#008a00;strokeColor=#005700;fontSize=52;" parent="1" source="wgz8BLLzfPJGVLbiUXuB-60" target="wgz8BLLzfPJGVLbiUXuB-74" edge="1"><mxGeometry relative="1" as="geometry"/></mxCell><mxCell id="mqudz-hGvWLqEcSGZrWv-4" value="Text" style="edgeLabel;html=1;align=center;verticalAlign=middle;resizable=0;points=[];" parent="wgz8BLLzfPJGVLbiUXuB-75" vertex="1" connectable="0"><mxGeometry x="-0.5282" y="6" relative="1" as="geometry"><mxPoint x="-2" as="offset"/></mxGeometry></mxCell><mxCell id="wgz8BLLzfPJGVLbiUXuB-88" style="edgeStyle=orthogonalEdgeStyle;rounded=0;orthogonalLoop=1;jettySize=auto;html=1;exitX=0.5;exitY=1;exitDx=0;exitDy=0;entryX=0.5;entryY=0;entryDx=0;entryDy=0;fillColor=#008a00;strokeColor=#005700;fontSize=52;" parent="1" source="wgz8BLLzfPJGVLbiUXuB-60" target="wgz8BLLzfPJGVLbiUXuB-87" edge="1"><mxGeometry relative="1" as="geometry"/></mxCell><mxCell id="wgz8BLLzfPJGVLbiUXuB-60" value="Google" style="rounded=1;whiteSpace=wrap;html=1;fillColor=#008a00;strokeColor=#005700;fontSize=52;fontColor=#ffffff;" parent="1" vertex="1"><mxGeometry x="-59.99999999999994" y="2740" width="280.06" height="160" as="geometry"/></mxCell><mxCell id="wgz8BLLzfPJGVLbiUXuB-62" value="Calendar&amp;nbsp;" style="rounded=1;whiteSpace=wrap;html=1;shadow=0;fillColor=#008a00;strokeColor=#005700;fontSize=52;fontColor=#ffffff;" parent="1" vertex="1"><mxGeometry x="-90" y="3060" width="250" height="140" as="geometry"/></mxCell><mxCell id="wgz8BLLzfPJGVLbiUXuB-64" value="Gmail" style="rounded=1;whiteSpace=wrap;html=1;shadow=0;fillColor=#008a00;strokeColor=#005700;fontSize=52;fontColor=#ffffff;" parent="1" vertex="1"><mxGeometry x="180" y="3055" width="150" height="150" as="geometry"/></mxCell><mxCell id="m3BGGVv8fKy3V24QByVO-4" value="" style="edgeStyle=orthogonalEdgeStyle;rounded=0;orthogonalLoop=1;jettySize=auto;html=1;fillColor=#008a00;strokeColor=#005700;" parent="1" source="wgz8BLLzfPJGVLbiUXuB-65" target="wgz8BLLzfPJGVLbiUXuB-64" edge="1"><mxGeometry relative="1" as="geometry"/></mxCell><mxCell id="wgz8BLLzfPJGVLbiUXuB-65" value="Maps" style="rounded=1;whiteSpace=wrap;html=1;shadow=0;fillColor=#008a00;strokeColor=#005700;fontSize=52;fontColor=#ffffff;" parent="1" vertex="1"><mxGeometry x="350" y="3060" width="240" height="140" as="geometry"/></mxCell><mxCell id="wgz8BLLzfPJGVLbiUXuB-66" value="Drive" style="rounded=1;whiteSpace=wrap;html=1;shadow=0;fillColor=#008a00;strokeColor=#005700;fontSize=52;fontColor=#ffffff;" parent="1" vertex="1"><mxGeometry x="-290" y="3060" width="170" height="110" as="geometry"/></mxCell><mxCell id="wgz8BLLzfPJGVLbiUXuB-67" value="Meet" style="rounded=1;whiteSpace=wrap;html=1;shadow=0;fillColor=#008a00;strokeColor=#005700;fontSize=52;fontColor=#ffffff;" parent="1" vertex="1"><mxGeometry x="640" y="3060" width="220.06" height="160" as="geometry"/></mxCell><mxCell id="wgz8BLLzfPJGVLbiUXuB-74" value="Translate" style="rounded=1;whiteSpace=wrap;html=1;shadow=0;fillColor=#008a00;strokeColor=#005700;fontSize=52;fontColor=#ffffff;" parent="1" vertex="1"><mxGeometry x="-560" y="3055" width="220" height="150" as="geometry"/></mxCell><mxCell id="wgz8BLLzfPJGVLbiUXuB-89" style="edgeStyle=orthogonalEdgeStyle;rounded=0;orthogonalLoop=1;jettySize=auto;html=1;exitX=0.5;exitY=1;exitDx=0;exitDy=0;entryX=0.5;entryY=0;entryDx=0;entryDy=0;fillColor=#008a00;strokeColor=#005700;fontSize=52;" parent="1" source="wgz8BLLzfPJGVLbiUXuB-78" target="wgz8BLLzfPJGVLbiUXuB-83" edge="1"><mxGeometry relative="1" as="geometry"/></mxCell><mxCell id="wgz8BLLzfPJGVLbiUXuB-90" style="edgeStyle=orthogonalEdgeStyle;rounded=0;orthogonalLoop=1;jettySize=auto;html=1;exitX=0.5;exitY=1;exitDx=0;exitDy=0;entryX=0.5;entryY=0;entryDx=0;entryDy=0;fillColor=#008a00;strokeColor=#005700;fontSize=52;" parent="1" source="wgz8BLLzfPJGVLbiUXuB-78" target="wgz8BLLzfPJGVLbiUXuB-82" edge="1"><mxGeometry relative="1" as="geometry"/></mxCell><mxCell id="wgz8BLLzfPJGVLbiUXuB-91" style="edgeStyle=orthogonalEdgeStyle;rounded=0;orthogonalLoop=1;jettySize=auto;html=1;exitX=0.5;exitY=1;exitDx=0;exitDy=0;entryX=0.5;entryY=0;entryDx=0;entryDy=0;fillColor=#008a00;strokeColor=#005700;fontSize=52;" parent="1" source="wgz8BLLzfPJGVLbiUXuB-78" target="wgz8BLLzfPJGVLbiUXuB-81" edge="1"><mxGeometry relative="1" as="geometry"/></mxCell><mxCell id="wgz8BLLzfPJGVLbiUXuB-92" style="edgeStyle=orthogonalEdgeStyle;rounded=0;orthogonalLoop=1;jettySize=auto;html=1;exitX=0.5;exitY=1;exitDx=0;exitDy=0;entryX=0.5;entryY=0;entryDx=0;entryDy=0;fillColor=#008a00;strokeColor=#005700;fontSize=52;" parent="1" source="wgz8BLLzfPJGVLbiUXuB-78" target="wgz8BLLzfPJGVLbiUXuB-86" edge="1"><mxGeometry relative="1" as="geometry"><mxPoint x="-1070" y="3090" as="targetPoint"/></mxGeometry></mxCell><mxCell id="wgz8BLLzfPJGVLbiUXuB-93" style="edgeStyle=orthogonalEdgeStyle;rounded=0;orthogonalLoop=1;jettySize=auto;html=1;exitX=0.5;exitY=1;exitDx=0;exitDy=0;entryX=0.5;entryY=0;entryDx=0;entryDy=0;fillColor=#008a00;strokeColor=#005700;fontSize=52;" parent="1" source="wgz8BLLzfPJGVLbiUXuB-78" target="wgz8BLLzfPJGVLbiUXuB-84" edge="1"><mxGeometry relative="1" as="geometry"/></mxCell><mxCell id="wgz8BLLzfPJGVLbiUXuB-78" value="Microsoft" style="rounded=1;whiteSpace=wrap;html=1;fillColor=#008a00;strokeColor=#005700;fontSize=52;fontColor=#ffffff;" parent="1" vertex="1"><mxGeometry x="-1565" y="2800" width="270" height="160" as="geometry"/></mxCell><mxCell id="wgz8BLLzfPJGVLbiUXuB-81" value="OneDrive" style="rounded=1;whiteSpace=wrap;html=1;fillColor=#008a00;strokeColor=#005700;fontSize=52;fontColor=#ffffff;" parent="1" vertex="1"><mxGeometry x="-1220" y="3120" width="200" height="120" as="geometry"/></mxCell><mxCell id="m3BGGVv8fKy3V24QByVO-1" value="" style="edgeStyle=orthogonalEdgeStyle;rounded=0;orthogonalLoop=1;jettySize=auto;html=1;fillColor=#008a00;strokeColor=#005700;" parent="1" source="wgz8BLLzfPJGVLbiUXuB-82" target="wgz8BLLzfPJGVLbiUXuB-83" edge="1"><mxGeometry relative="1" as="geometry"/></mxCell><mxCell id="wgz8BLLzfPJGVLbiUXuB-82" value="Teams" style="rounded=1;whiteSpace=wrap;html=1;fillColor=#008a00;strokeColor=#005700;fontSize=52;fontColor=#ffffff;" parent="1" vertex="1"><mxGeometry x="-1490" y="3100" width="240" height="140" as="geometry"/></mxCell><mxCell id="wgz8BLLzfPJGVLbiUXuB-83" value="To Do" style="rounded=1;whiteSpace=wrap;html=1;fillColor=#008a00;strokeColor=#005700;fontSize=52;fontColor=#ffffff;" parent="1" vertex="1"><mxGeometry x="-1670" y="3100" width="160" height="130" as="geometry"/></mxCell><mxCell id="wgz8BLLzfPJGVLbiUXuB-84" value="OutLook" style="rounded=1;whiteSpace=wrap;html=1;fillColor=#008a00;strokeColor=#005700;fontSize=52;fontColor=#ffffff;" parent="1" vertex="1"><mxGeometry x="-1920" y="3080" width="190" height="150" as="geometry"/></mxCell><mxCell id="wgz8BLLzfPJGVLbiUXuB-86" value="Office 365" style="rounded=1;whiteSpace=wrap;html=1;fillColor=#008a00;strokeColor=#005700;fontSize=52;fontColor=#ffffff;" parent="1" vertex="1"><mxGeometry x="-990" y="3130" width="250" height="150" as="geometry"/></mxCell><mxCell id="wgz8BLLzfPJGVLbiUXuB-87" value="To Do" style="rounded=1;whiteSpace=wrap;html=1;fillColor=#008a00;strokeColor=#005700;fontSize=52;fontColor=#ffffff;" parent="1" vertex="1"><mxGeometry x="880" y="3035" width="250.06" height="110" as="geometry"/></mxCell><mxCell id="wgz8BLLzfPJGVLbiUXuB-99" style="edgeStyle=orthogonalEdgeStyle;rounded=0;orthogonalLoop=1;jettySize=auto;html=1;exitX=0.5;exitY=1;exitDx=0;exitDy=0;entryX=0.5;entryY=0;entryDx=0;entryDy=0;fillColor=#008a00;strokeColor=#005700;fontSize=52;" parent="1" source="wgz8BLLzfPJGVLbiUXuB-94" target="wgz8BLLzfPJGVLbiUXuB-96" edge="1"><mxGeometry relative="1" as="geometry"/></mxCell><mxCell id="wgz8BLLzfPJGVLbiUXuB-102" style="edgeStyle=orthogonalEdgeStyle;rounded=0;orthogonalLoop=1;jettySize=auto;html=1;exitX=0.5;exitY=1;exitDx=0;exitDy=0;fillColor=#008a00;strokeColor=#005700;fontSize=52;" parent="1" source="wgz8BLLzfPJGVLbiUXuB-94" target="wgz8BLLzfPJGVLbiUXuB-98" edge="1"><mxGeometry relative="1" as="geometry"/></mxCell><mxCell id="2" style="edgeStyle=orthogonalEdgeStyle;rounded=0;orthogonalLoop=1;jettySize=auto;html=1;exitX=0.5;exitY=1;exitDx=0;exitDy=0;entryX=0.5;entryY=0;entryDx=0;entryDy=0;" parent="1" source="wgz8BLLzfPJGVLbiUXuB-94" target="wgz8BLLzfPJGVLbiUXuB-96" edge="1"><mxGeometry relative="1" as="geometry"/></mxCell><mxCell id="3" style="edgeStyle=orthogonalEdgeStyle;rounded=0;orthogonalLoop=1;jettySize=auto;html=1;exitX=0.5;exitY=1;exitDx=0;exitDy=0;entryX=0.5;entryY=0;entryDx=0;entryDy=0;" parent="1" source="wgz8BLLzfPJGVLbiUXuB-94" target="wgz8BLLzfPJGVLbiUXuB-98" edge="1"><mxGeometry relative="1" as="geometry"/></mxCell><mxCell id="wgz8BLLzfPJGVLbiUXuB-94" value="SIAAI" style="rounded=1;whiteSpace=wrap;html=1;fontSize=52;fillColor=#008a00;strokeColor=#005700;fontColor=#ffffff;" parent="1" vertex="1"><mxGeometry x="169.94" y="1650" width="700" height="260" as="geometry"/></mxCell><mxCell id="wgz8BLLzfPJGVLbiUXuB-95" value="Local Network Control" style="rounded=1;whiteSpace=wrap;html=1;fillColor=#008a00;strokeColor=#005700;fontSize=52;fontColor=#ffffff;" parent="1" vertex="1"><mxGeometry x="1390" y="2570" width="320.06" height="220" as="geometry"/></mxCell><mxCell id="wgz8BLLzfPJGVLbiUXuB-100" style="edgeStyle=orthogonalEdgeStyle;rounded=0;orthogonalLoop=1;jettySize=auto;html=1;exitX=0.25;exitY=1;exitDx=0;exitDy=0;entryX=0.5;entryY=0;entryDx=0;entryDy=0;fillColor=#008a00;strokeColor=#005700;fontSize=52;" parent="1" source="wgz8BLLzfPJGVLbiUXuB-96" target="wgz8BLLzfPJGVLbiUXuB-78" edge="1"><mxGeometry relative="1" as="geometry"/></mxCell><mxCell id="wgz8BLLzfPJGVLbiUXuB-101" style="edgeStyle=orthogonalEdgeStyle;rounded=0;orthogonalLoop=1;jettySize=auto;html=1;exitX=0.75;exitY=1;exitDx=0;exitDy=0;entryX=0.5;entryY=0;entryDx=0;entryDy=0;fillColor=#008a00;strokeColor=#005700;fontSize=52;" parent="1" source="wgz8BLLzfPJGVLbiUXuB-96" target="wgz8BLLzfPJGVLbiUXuB-60" edge="1"><mxGeometry relative="1" as="geometry"/></mxCell><mxCell id="wgz8BLLzfPJGVLbiUXuB-114" style="edgeStyle=orthogonalEdgeStyle;rounded=0;orthogonalLoop=1;jettySize=auto;html=1;exitX=0.25;exitY=1;exitDx=0;exitDy=0;fillColor=#008a00;strokeColor=#005700;fontSize=52;" parent="1" source="wgz8BLLzfPJGVLbiUXuB-96" target="wgz8BLLzfPJGVLbiUXuB-105" edge="1"><mxGeometry relative="1" as="geometry"/></mxCell><mxCell id="wgz8BLLzfPJGVLbiUXuB-117" style="edgeStyle=orthogonalEdgeStyle;rounded=0;orthogonalLoop=1;jettySize=auto;html=1;exitX=0.25;exitY=1;exitDx=0;exitDy=0;entryX=0.5;entryY=0;entryDx=0;entryDy=0;fillColor=#008a00;strokeColor=#005700;fontSize=52;" parent="1" source="wgz8BLLzfPJGVLbiUXuB-96" target="wgz8BLLzfPJGVLbiUXuB-116" edge="1"><mxGeometry relative="1" as="geometry"/></mxCell><mxCell id="4" style="edgeStyle=orthogonalEdgeStyle;rounded=0;orthogonalLoop=1;jettySize=auto;html=1;exitX=0.5;exitY=1;exitDx=0;exitDy=0;entryX=0.5;entryY=0;entryDx=0;entryDy=0;" parent="1" source="wgz8BLLzfPJGVLbiUXuB-96" target="wgz8BLLzfPJGVLbiUXuB-60" edge="1"><mxGeometry relative="1" as="geometry"/></mxCell><mxCell id="5" style="edgeStyle=orthogonalEdgeStyle;rounded=0;orthogonalLoop=1;jettySize=auto;html=1;exitX=0.5;exitY=1;exitDx=0;exitDy=0;" parent="1" source="wgz8BLLzfPJGVLbiUXuB-96" target="wgz8BLLzfPJGVLbiUXuB-78" edge="1"><mxGeometry relative="1" as="geometry"/></mxCell><mxCell id="6" style="edgeStyle=orthogonalEdgeStyle;rounded=0;orthogonalLoop=1;jettySize=auto;html=1;exitX=0.5;exitY=1;exitDx=0;exitDy=0;" parent="1" source="wgz8BLLzfPJGVLbiUXuB-96" target="wgz8BLLzfPJGVLbiUXuB-105" edge="1"><mxGeometry relative="1" as="geometry"/></mxCell><mxCell id="7" style="edgeStyle=orthogonalEdgeStyle;rounded=0;orthogonalLoop=1;jettySize=auto;html=1;exitX=0.5;exitY=1;exitDx=0;exitDy=0;entryX=0.5;entryY=0;entryDx=0;entryDy=0;" parent="1" source="wgz8BLLzfPJGVLbiUXuB-96" target="wgz8BLLzfPJGVLbiUXuB-116" edge="1"><mxGeometry relative="1" as="geometry"/></mxCell><mxCell id="wgz8BLLzfPJGVLbiUXuB-96" value="Connected to other" style="rounded=1;whiteSpace=wrap;html=1;fillColor=#008a00;strokeColor=#005700;fontSize=52;fontColor=#ffffff;" parent="1" vertex="1"><mxGeometry x="-990" y="2190" width="520" height="310" as="geometry"/></mxCell><mxCell id="wgz8BLLzfPJGVLbiUXuB-103" style="edgeStyle=orthogonalEdgeStyle;rounded=0;orthogonalLoop=1;jettySize=auto;html=1;exitX=0.5;exitY=1;exitDx=0;exitDy=0;entryX=0.5;entryY=0;entryDx=0;entryDy=0;fillColor=#008a00;strokeColor=#005700;fontSize=52;" parent="1" source="wgz8BLLzfPJGVLbiUXuB-98" target="wgz8BLLzfPJGVLbiUXuB-95" edge="1"><mxGeometry relative="1" as="geometry"/></mxCell><mxCell id="mqudz-hGvWLqEcSGZrWv-1" style="edgeStyle=orthogonalEdgeStyle;rounded=0;orthogonalLoop=1;jettySize=auto;html=1;exitX=1;exitY=0.5;exitDx=0;exitDy=0;entryX=1;entryY=0.5;entryDx=0;entryDy=0;" parent="1" source="wgz8BLLzfPJGVLbiUXuB-98" target="wgz8BLLzfPJGVLbiUXuB-2" edge="1"><mxGeometry relative="1" as="geometry"><Array as="points"><mxPoint x="3330" y="2300"/><mxPoint x="3330" y="400"/></Array></mxGeometry></mxCell><mxCell id="mqudz-hGvWLqEcSGZrWv-5" style="edgeStyle=orthogonalEdgeStyle;rounded=0;orthogonalLoop=1;jettySize=auto;html=1;exitX=0.5;exitY=1;exitDx=0;exitDy=0;entryX=0.5;entryY=0;entryDx=0;entryDy=0;" parent="1" source="wgz8BLLzfPJGVLbiUXuB-98" target="mqudz-hGvWLqEcSGZrWv-3" edge="1"><mxGeometry relative="1" as="geometry"/></mxCell><mxCell id="mqudz-hGvWLqEcSGZrWv-12" style="edgeStyle=orthogonalEdgeStyle;rounded=0;orthogonalLoop=1;jettySize=auto;html=1;exitX=0.5;exitY=1;exitDx=0;exitDy=0;entryX=0.5;entryY=0;entryDx=0;entryDy=0;" parent="1" source="wgz8BLLzfPJGVLbiUXuB-98" target="mqudz-hGvWLqEcSGZrWv-9" edge="1"><mxGeometry relative="1" as="geometry"/></mxCell><mxCell id="mqudz-hGvWLqEcSGZrWv-13" style="edgeStyle=orthogonalEdgeStyle;rounded=0;orthogonalLoop=1;jettySize=auto;html=1;exitX=0.5;exitY=1;exitDx=0;exitDy=0;entryX=0.5;entryY=0;entryDx=0;entryDy=0;" parent="1" source="wgz8BLLzfPJGVLbiUXuB-98" target="mqudz-hGvWLqEcSGZrWv-11" edge="1"><mxGeometry relative="1" as="geometry"/></mxCell><mxCell id="wgz8BLLzfPJGVLbiUXuB-98" value="Her&amp;nbsp; Own" style="rounded=1;whiteSpace=wrap;html=1;fillColor=#008a00;strokeColor=#005700;fontSize=52;fontColor=#ffffff;" parent="1" vertex="1"><mxGeometry x="1700" y="2260" width="340" height="70" as="geometry"/></mxCell><mxCell id="wgz8BLLzfPJGVLbiUXuB-110" style="edgeStyle=orthogonalEdgeStyle;rounded=0;orthogonalLoop=1;jettySize=auto;html=1;exitX=0.5;exitY=1;exitDx=0;exitDy=0;entryX=0.5;entryY=0;entryDx=0;entryDy=0;fillColor=#008a00;strokeColor=#005700;fontSize=52;" parent="1" source="wgz8BLLzfPJGVLbiUXuB-105" target="wgz8BLLzfPJGVLbiUXuB-107" edge="1"><mxGeometry relative="1" as="geometry"/></mxCell><mxCell id="wgz8BLLzfPJGVLbiUXuB-111" style="edgeStyle=orthogonalEdgeStyle;rounded=0;orthogonalLoop=1;jettySize=auto;html=1;exitX=0.5;exitY=1;exitDx=0;exitDy=0;fillColor=#008a00;strokeColor=#005700;fontSize=52;" parent="1" source="wgz8BLLzfPJGVLbiUXuB-105" target="wgz8BLLzfPJGVLbiUXuB-106" edge="1"><mxGeometry relative="1" as="geometry"/></mxCell><mxCell id="wgz8BLLzfPJGVLbiUXuB-112" style="edgeStyle=orthogonalEdgeStyle;rounded=0;orthogonalLoop=1;jettySize=auto;html=1;exitX=0.5;exitY=1;exitDx=0;exitDy=0;entryX=0.5;entryY=0;entryDx=0;entryDy=0;fillColor=#008a00;strokeColor=#005700;fontSize=52;" parent="1" source="wgz8BLLzfPJGVLbiUXuB-105" target="wgz8BLLzfPJGVLbiUXuB-109" edge="1"><mxGeometry relative="1" as="geometry"/></mxCell><mxCell id="wgz8BLLzfPJGVLbiUXuB-113" style="edgeStyle=orthogonalEdgeStyle;rounded=0;orthogonalLoop=1;jettySize=auto;html=1;exitX=0.5;exitY=1;exitDx=0;exitDy=0;entryX=0.5;entryY=0;entryDx=0;entryDy=0;fillColor=#008a00;strokeColor=#005700;fontSize=52;" parent="1" source="wgz8BLLzfPJGVLbiUXuB-105" target="wgz8BLLzfPJGVLbiUXuB-108" edge="1"><mxGeometry relative="1" as="geometry"/></mxCell><mxCell id="wgz8BLLzfPJGVLbiUXuB-105" value="Meta&amp;nbsp;" style="rounded=1;whiteSpace=wrap;html=1;fillColor=#008a00;strokeColor=#005700;fontSize=52;fontColor=#ffffff;" parent="1" vertex="1"><mxGeometry x="-2740" y="2730" width="270" height="140" as="geometry"/></mxCell><mxCell id="wgz8BLLzfPJGVLbiUXuB-106" value="Instagram" style="rounded=1;whiteSpace=wrap;html=1;fillColor=#008a00;strokeColor=#005700;fontSize=52;fontColor=#ffffff;" parent="1" vertex="1"><mxGeometry x="-2530" y="2980" width="190" height="110" as="geometry"/></mxCell><mxCell id="wgz8BLLzfPJGVLbiUXuB-107" value="Facebook" style="rounded=1;whiteSpace=wrap;html=1;fillColor=#008a00;strokeColor=#005700;fontSize=52;fontColor=#ffffff;" parent="1" vertex="1"><mxGeometry x="-2830" y="2990" width="260" height="140" as="geometry"/></mxCell><mxCell id="wgz8BLLzfPJGVLbiUXuB-108" value="Messenger" style="rounded=1;whiteSpace=wrap;html=1;fillColor=#008a00;strokeColor=#005700;fontSize=52;fontColor=#ffffff;" parent="1" vertex="1"><mxGeometry x="-3150" y="2990" width="280" height="150" as="geometry"/></mxCell><mxCell id="wgz8BLLzfPJGVLbiUXuB-109" value="WhatsUpp" style="rounded=1;whiteSpace=wrap;html=1;fillColor=#008a00;strokeColor=#005700;fontSize=52;fontColor=#ffffff;" parent="1" vertex="1"><mxGeometry x="-2280" y="2980" width="230" height="140" as="geometry"/></mxCell><mxCell id="m3BGGVv8fKy3V24QByVO-3" style="edgeStyle=orthogonalEdgeStyle;rounded=0;orthogonalLoop=1;jettySize=auto;html=1;exitX=0.5;exitY=1;exitDx=0;exitDy=0;entryX=0;entryY=0.5;entryDx=0;entryDy=0;fillColor=#008a00;strokeColor=#005700;" parent="1" source="wgz8BLLzfPJGVLbiUXuB-116" target="wgz8BLLzfPJGVLbiUXuB-13" edge="1"><mxGeometry relative="1" as="geometry"><Array as="points"><mxPoint x="-3570" y="2900"/><mxPoint x="-4040" y="2900"/><mxPoint x="-4040" y="1630"/><mxPoint x="-2090" y="1630"/><mxPoint x="-2090" y="750"/></Array></mxGeometry></mxCell><mxCell id="wgz8BLLzfPJGVLbiUXuB-116" value="Android" style="rounded=1;whiteSpace=wrap;html=1;fillColor=#008a00;strokeColor=#005700;fontSize=52;fontColor=#ffffff;" parent="1" vertex="1"><mxGeometry x="-3750" y="2660" width="360" height="140" as="geometry"/></mxCell><mxCell id="m3BGGVv8fKy3V24QByVO-5" style="edgeStyle=orthogonalEdgeStyle;rounded=0;orthogonalLoop=1;jettySize=auto;html=1;exitX=0.5;exitY=1;exitDx=0;exitDy=0;fillColor=#008a00;strokeColor=#005700;" parent="1" source="wgz8BLLzfPJGVLbiUXuB-65" target="wgz8BLLzfPJGVLbiUXuB-65" edge="1"><mxGeometry relative="1" as="geometry"/></mxCell><mxCell id="mqudz-hGvWLqEcSGZrWv-3" value="User Shedule of day" style="rounded=1;whiteSpace=wrap;html=1;fillColor=#008a00;strokeColor=#005700;fontSize=52;fontColor=#ffffff;" parent="1" vertex="1"><mxGeometry x="3020" y="2605" width="380" height="210" as="geometry"/></mxCell><mxCell id="mqudz-hGvWLqEcSGZrWv-9" value="Internet searcher" style="rounded=1;whiteSpace=wrap;html=1;fillColor=#008a00;strokeColor=#005700;fontSize=52;fontColor=#ffffff;" parent="1" vertex="1"><mxGeometry x="1870" y="2600" width="320.06" height="220" as="geometry"/></mxCell><mxCell id="mqudz-hGvWLqEcSGZrWv-11" value="Music bot" style="rounded=1;whiteSpace=wrap;html=1;fillColor=#008a00;strokeColor=#005700;fontSize=52;fontColor=#ffffff;" parent="1" vertex="1"><mxGeometry x="2450" y="2590" width="320.06" height="220" as="geometry"/></mxCell></root></mxGraphModel></diagram></mxfile>